<svg width="476" height="382" viewBox="0 0 476 382" fill="none" xmlns="http://www.w3.org/2000/svg">
<g filter="url(#filter0_d_17_273)">
<g filter="url(#filter1_dd_17_273)">
<path d="M306.5 317L451 291L472 373.5H4L306.5 317Z" fill="#E9C1CC"/>
</g>
<path d="M250.5 11.5001C427.679 33.1999 261.931 225.86 269.5 327" stroke="black"/>
<path d="M303.784 351.179C302.941 351.179 302.188 351.034 301.528 350.744C300.872 350.455 300.35 350.052 299.962 349.536C299.578 349.016 299.369 348.413 299.335 347.727H300.946C300.98 348.149 301.125 348.513 301.381 348.82C301.637 349.123 301.971 349.357 302.384 349.523C302.798 349.69 303.256 349.773 303.759 349.773C304.321 349.773 304.82 349.675 305.254 349.479C305.689 349.283 306.03 349.01 306.277 348.661C306.524 348.311 306.648 347.906 306.648 347.446C306.648 346.964 306.529 346.54 306.29 346.174C306.051 345.803 305.702 345.513 305.242 345.305C304.781 345.096 304.219 344.991 303.554 344.991H302.506V343.585H303.554C304.074 343.585 304.53 343.491 304.922 343.304C305.318 343.116 305.627 342.852 305.849 342.511C306.075 342.17 306.188 341.77 306.188 341.31C306.188 340.866 306.09 340.481 305.894 340.153C305.698 339.825 305.421 339.569 305.063 339.386C304.709 339.202 304.291 339.111 303.81 339.111C303.358 339.111 302.932 339.194 302.531 339.36C302.135 339.522 301.811 339.759 301.56 340.07C301.308 340.376 301.172 340.747 301.151 341.182H299.617C299.642 340.496 299.849 339.895 300.237 339.379C300.624 338.859 301.132 338.455 301.758 338.165C302.389 337.875 303.081 337.73 303.835 337.73C304.645 337.73 305.34 337.894 305.919 338.222C306.499 338.546 306.944 338.974 307.255 339.507C307.566 340.04 307.722 340.615 307.722 341.233C307.722 341.97 307.528 342.599 307.14 343.119C306.757 343.638 306.235 343.999 305.574 344.199V344.301C306.401 344.437 307.046 344.789 307.511 345.356C307.975 345.918 308.208 346.615 308.208 347.446C308.208 348.158 308.014 348.797 307.626 349.364C307.242 349.926 306.718 350.369 306.053 350.693C305.389 351.017 304.632 351.179 303.784 351.179ZM313.737 351.23C313.115 351.23 312.55 351.113 312.043 350.879C311.536 350.64 311.133 350.297 310.835 349.849C310.536 349.398 310.387 348.852 310.387 348.213C310.387 347.651 310.498 347.195 310.72 346.845C310.941 346.491 311.237 346.214 311.608 346.014C311.979 345.814 312.388 345.665 312.835 345.567C313.287 345.464 313.741 345.384 314.197 345.324C314.794 345.247 315.277 345.19 315.648 345.151C316.023 345.109 316.296 345.038 316.466 344.94C316.641 344.842 316.728 344.672 316.728 344.429V344.378C316.728 343.747 316.556 343.257 316.21 342.908C315.869 342.558 315.352 342.384 314.657 342.384C313.937 342.384 313.372 342.541 312.963 342.857C312.554 343.172 312.267 343.509 312.1 343.866L310.669 343.355C310.924 342.759 311.265 342.294 311.691 341.962C312.122 341.625 312.59 341.391 313.097 341.259C313.609 341.122 314.112 341.054 314.606 341.054C314.921 341.054 315.284 341.092 315.693 341.169C316.106 341.241 316.504 341.393 316.888 341.623C317.276 341.853 317.597 342.2 317.853 342.665C318.109 343.129 318.237 343.751 318.237 344.531V351H316.728V349.67H316.651C316.549 349.884 316.379 350.112 316.14 350.354C315.901 350.597 315.584 350.804 315.188 350.974C314.791 351.145 314.308 351.23 313.737 351.23ZM313.967 349.875C314.563 349.875 315.066 349.758 315.475 349.523C315.889 349.289 316.2 348.987 316.409 348.616C316.622 348.245 316.728 347.855 316.728 347.446V346.065C316.664 346.142 316.524 346.212 316.306 346.276C316.093 346.336 315.846 346.389 315.565 346.436C315.288 346.479 315.017 346.517 314.753 346.551C314.493 346.581 314.282 346.607 314.12 346.628C313.728 346.679 313.362 346.762 313.021 346.877C312.684 346.988 312.411 347.156 312.203 347.382C311.998 347.604 311.896 347.906 311.896 348.29C311.896 348.814 312.09 349.21 312.477 349.479C312.869 349.743 313.366 349.875 313.967 349.875ZM320.99 351V341.182H328.712V351H327.203V342.588H322.499V351H320.99ZM332.975 348.776L337.705 341.182H339.444V351H337.935V343.406L333.231 351H331.467V341.182H332.975V348.776ZM346.195 351.205C345.275 351.205 344.482 350.987 343.818 350.553C343.153 350.118 342.642 349.519 342.284 348.756C341.926 347.994 341.747 347.122 341.747 346.142C341.747 345.145 341.93 344.265 342.296 343.502C342.667 342.735 343.183 342.136 343.843 341.706C344.508 341.271 345.284 341.054 346.17 341.054C346.86 341.054 347.482 341.182 348.036 341.438C348.59 341.693 349.044 342.051 349.398 342.511C349.752 342.972 349.971 343.509 350.056 344.122H348.548C348.433 343.675 348.177 343.278 347.781 342.933C347.389 342.584 346.86 342.409 346.195 342.409C345.607 342.409 345.092 342.562 344.649 342.869C344.21 343.172 343.867 343.6 343.619 344.154C343.377 344.704 343.255 345.349 343.255 346.091C343.255 346.849 343.374 347.51 343.613 348.072C343.856 348.635 344.197 349.072 344.636 349.383C345.079 349.694 345.599 349.849 346.195 349.849C346.588 349.849 346.943 349.781 347.263 349.645C347.583 349.509 347.853 349.312 348.075 349.057C348.296 348.801 348.454 348.494 348.548 348.136H350.056C349.971 348.716 349.76 349.238 349.423 349.702C349.091 350.163 348.65 350.529 348.1 350.802C347.555 351.07 346.92 351.205 346.195 351.205ZM355.151 351.23C354.529 351.23 353.964 351.113 353.457 350.879C352.95 350.64 352.547 350.297 352.249 349.849C351.95 349.398 351.801 348.852 351.801 348.213C351.801 347.651 351.912 347.195 352.134 346.845C352.355 346.491 352.651 346.214 353.022 346.014C353.393 345.814 353.802 345.665 354.249 345.567C354.701 345.464 355.155 345.384 355.611 345.324C356.208 345.247 356.691 345.19 357.062 345.151C357.437 345.109 357.71 345.038 357.88 344.94C358.055 344.842 358.142 344.672 358.142 344.429V344.378C358.142 343.747 357.97 343.257 357.624 342.908C357.284 342.558 356.766 342.384 356.071 342.384C355.351 342.384 354.786 342.541 354.377 342.857C353.968 343.172 353.681 343.509 353.514 343.866L352.083 343.355C352.338 342.759 352.679 342.294 353.105 341.962C353.536 341.625 354.004 341.391 354.512 341.259C355.023 341.122 355.526 341.054 356.02 341.054C356.335 341.054 356.698 341.092 357.107 341.169C357.52 341.241 357.919 341.393 358.302 341.623C358.69 341.853 359.012 342.2 359.267 342.665C359.523 343.129 359.651 343.751 359.651 344.531V351H358.142V349.67H358.066C357.963 349.884 357.793 350.112 357.554 350.354C357.316 350.597 356.998 350.804 356.602 350.974C356.205 351.145 355.722 351.23 355.151 351.23ZM355.381 349.875C355.977 349.875 356.48 349.758 356.889 349.523C357.303 349.289 357.614 348.987 357.823 348.616C358.036 348.245 358.142 347.855 358.142 347.446V346.065C358.078 346.142 357.938 346.212 357.72 346.276C357.507 346.336 357.26 346.389 356.979 346.436C356.702 346.479 356.431 346.517 356.167 346.551C355.907 346.581 355.696 346.607 355.534 346.628C355.142 346.679 354.776 346.762 354.435 346.877C354.098 346.988 353.825 347.156 353.617 347.382C353.412 347.604 353.31 347.906 353.31 348.29C353.31 348.814 353.504 349.21 353.892 349.479C354.284 349.743 354.78 349.875 355.381 349.875ZM361.068 342.588V341.182H369.045V342.588H365.824V351H364.315V342.588H361.068ZM372.55 344.736H375.362C376.513 344.736 377.393 345.028 378.002 345.612C378.612 346.195 378.916 346.935 378.916 347.83C378.916 348.418 378.78 348.952 378.507 349.434C378.235 349.911 377.834 350.293 377.306 350.578C376.777 350.859 376.129 351 375.362 351H371.246V341.182H372.754V349.594H375.362C375.959 349.594 376.449 349.436 376.833 349.121C377.216 348.805 377.408 348.401 377.408 347.906C377.408 347.386 377.216 346.962 376.833 346.634C376.449 346.306 375.959 346.142 375.362 346.142H372.55V344.736ZM385.201 351.205C384.281 351.205 383.488 350.987 382.824 350.553C382.159 350.118 381.647 349.519 381.289 348.756C380.931 347.994 380.752 347.122 380.752 346.142C380.752 345.145 380.936 344.265 381.302 343.502C381.673 342.735 382.189 342.136 382.849 341.706C383.514 341.271 384.289 341.054 385.176 341.054C385.866 341.054 386.488 341.182 387.042 341.438C387.596 341.693 388.05 342.051 388.404 342.511C388.757 342.972 388.977 343.509 389.062 344.122H387.554C387.439 343.675 387.183 343.278 386.787 342.933C386.395 342.584 385.866 342.409 385.201 342.409C384.613 342.409 384.098 342.562 383.654 342.869C383.216 343.172 382.873 343.6 382.625 344.154C382.382 344.704 382.261 345.349 382.261 346.091C382.261 346.849 382.38 347.51 382.619 348.072C382.862 348.635 383.203 349.072 383.642 349.383C384.085 349.694 384.605 349.849 385.201 349.849C385.593 349.849 385.949 349.781 386.269 349.645C386.588 349.509 386.859 349.312 387.081 349.057C387.302 348.801 387.46 348.494 387.554 348.136H389.062C388.977 348.716 388.766 349.238 388.429 349.702C388.097 350.163 387.656 350.529 387.106 350.802C386.561 351.07 385.926 351.205 385.201 351.205ZM397.174 351V342.562H394.566C393.978 342.562 393.515 342.699 393.179 342.972C392.842 343.244 392.674 343.619 392.674 344.097C392.674 344.565 392.825 344.934 393.127 345.202C393.434 345.471 393.854 345.605 394.387 345.605H397.557V347.011H394.387C393.722 347.011 393.149 346.894 392.667 346.66C392.186 346.425 391.815 346.091 391.555 345.656C391.295 345.217 391.165 344.697 391.165 344.097C391.165 343.491 391.301 342.972 391.574 342.537C391.847 342.102 392.237 341.768 392.744 341.533C393.255 341.299 393.863 341.182 394.566 341.182H398.605V351H397.174ZM390.628 351L393.415 346.116H395.051L392.265 351H390.628Z" fill="black"/>
</g>
<defs>
<filter id="filter0_d_17_273" x="0" y="11.0038" width="476" height="370.496" filterUnits="userSpaceOnUse" color-interpolation-filters="sRGB">
<feFlood flood-opacity="0" result="BackgroundImageFix"/>
<feColorMatrix in="SourceAlpha" type="matrix" values="0 0 0 0 0 0 0 0 0 0 0 0 0 0 0 0 0 0 127 0" result="hardAlpha"/>
<feOffset dy="4"/>
<feGaussianBlur stdDeviation="2"/>
<feComposite in2="hardAlpha" operator="out"/>
<feColorMatrix type="matrix" values="0 0 0 0 0 0 0 0 0 0 0 0 0 0 0 0 0 0 0.7 0"/>
<feBlend mode="normal" in2="BackgroundImageFix" result="effect1_dropShadow_17_273"/>
<feBlend mode="normal" in="SourceGraphic" in2="effect1_dropShadow_17_273" result="shape"/>
</filter>
<filter id="filter1_dd_17_273" x="0" y="291" width="476" height="90.5" filterUnits="userSpaceOnUse" color-interpolation-filters="sRGB">
<feFlood flood-opacity="0" result="BackgroundImageFix"/>
<feColorMatrix in="SourceAlpha" type="matrix" values="0 0 0 0 0 0 0 0 0 0 0 0 0 0 0 0 0 0 127 0" result="hardAlpha"/>
<feOffset dy="4"/>
<feGaussianBlur stdDeviation="2"/>
<feComposite in2="hardAlpha" operator="out"/>
<feColorMatrix type="matrix" values="0 0 0 0 0 0 0 0 0 0 0 0 0 0 0 0 0 0 0.5 0"/>
<feBlend mode="normal" in2="BackgroundImageFix" result="effect1_dropShadow_17_273"/>
<feColorMatrix in="SourceAlpha" type="matrix" values="0 0 0 0 0 0 0 0 0 0 0 0 0 0 0 0 0 0 127 0" result="hardAlpha"/>
<feOffset dy="4"/>
<feGaussianBlur stdDeviation="2"/>
<feComposite in2="hardAlpha" operator="out"/>
<feColorMatrix type="matrix" values="0 0 0 0 0 0 0 0 0 0 0 0 0 0 0 0 0 0 0.25 0"/>
<feBlend mode="normal" in2="effect1_dropShadow_17_273" result="effect2_dropShadow_17_273"/>
<feBlend mode="normal" in="SourceGraphic" in2="effect2_dropShadow_17_273" result="shape"/>
</filter>
</defs>
</svg>
