<svg width="40" height="40" viewBox="0 0 40 40" fill="none" xmlns="http://www.w3.org/2000/svg">
<g clip-path="url(#clip0_22_21)">
<path d="M40 20C40 8.9543 31.0457 0 20 0C8.9543 0 0 8.9543 0 20C0 31.0457 8.9543 40 20 40C31.0457 40 40 31.0457 40 20Z" fill="#EDE2E5"/>
<path d="M14.3553 9.27173C13.6529 9.35589 12.8242 9.62942 12.1933 9.98704C10.5612 10.9253 9.48442 12.5579 9.27826 14.4133C9.21519 14.973 9.21519 25.0207 9.27826 25.5802C9.57696 28.2857 11.7137 30.4231 14.4184 30.7219C14.9778 30.785 25.0225 30.785 25.582 30.7219C28.2867 30.4231 30.4234 28.2857 30.7221 25.5802C30.7852 25.0207 30.7852 14.973 30.7221 14.4133C30.4234 11.708 28.2867 9.5705 25.582 9.27173C25.0857 9.21704 14.839 9.21704 14.3553 9.27173ZM26.52 12.095C27.151 12.2843 27.6347 12.8397 27.7398 13.5003C27.866 14.2787 27.3907 15.0908 26.642 15.3727C26.0026 15.6167 25.2413 15.4443 24.7786 14.9477C23.8069 13.9085 24.4084 12.2297 25.826 12.0319C25.9942 12.0109 26.3349 12.0403 26.52 12.095ZM20.7742 14.1693C22.0739 14.3419 23.2012 14.9014 24.1477 15.8482C26.4611 18.1623 26.4611 21.8313 24.1477 24.1454C21.8341 26.4596 18.1663 26.4596 15.8527 24.1454C13.5393 21.8313 13.5393 18.1623 15.8527 15.8482C17.1777 14.527 18.9402 13.9253 20.7742 14.1693Z" fill="black"/>
<path d="M25.9101 13.2942C25.7755 13.3279 25.5988 13.5215 25.5694 13.6687C25.5357 13.8622 25.6492 14.081 25.8344 14.1694C26.0278 14.262 26.2171 14.2241 26.3728 14.0642C26.5621 13.8665 26.5241 13.5172 26.2971 13.3741C26.1835 13.3026 26.0236 13.269 25.9101 13.2942Z" fill="white"/>
<path d="M19.3018 15.4315C18.3217 15.583 17.4468 16.029 16.7401 16.7359C14.9271 18.5451 14.9271 21.4484 16.7401 23.2576C18.5488 25.071 21.4511 25.071 23.2598 23.2576C25.0728 21.4484 25.0728 18.5451 23.2598 16.7359C22.2125 15.6882 20.7487 15.2044 19.3018 15.4315Z" fill="black"/>
</g>
<defs>
<clipPath id="clip0_22_21">
<rect width="40" height="40" fill="white"/>
</clipPath>
</defs>
</svg>
