<svg width="40" height="40" viewBox="0 0 40 40" fill="none" xmlns="http://www.w3.org/2000/svg">
<g clip-path="url(#clip0_22_18)">
<path d="M40 20C40 8.9543 31.0457 0 20 0C8.9543 0 0 8.9543 0 20C0 31.0457 8.9543 40 20 40C31.0457 40 40 31.0457 40 20Z" fill="#EDE2E5"/>
<path d="M29.2969 11.1405C27.8666 11.6664 10.2194 18.4435 9.95851 18.5696C9.09612 18.9777 8.9952 19.5162 9.7145 19.8822C9.78604 19.92 10.9765 20.2986 12.369 20.7319L14.8972 21.5185L20.6352 17.926C23.7944 15.9531 26.4405 14.3125 26.5162 14.2872C26.7139 14.2198 26.8822 14.2241 26.9579 14.304C27.0126 14.3587 27.0168 14.3839 26.9705 14.4638C26.9453 14.5185 24.8461 16.4242 22.3137 18.6958C19.7812 20.9717 17.6989 22.8479 17.6905 22.8689C17.682 22.8899 17.598 24.0258 17.5012 25.393L17.3245 27.8749L17.518 27.8497C17.6232 27.8371 17.7873 27.7824 17.884 27.7277C17.985 27.6772 18.6412 27.0798 19.3521 26.4026C20.0589 25.7253 20.6647 25.1574 20.6941 25.149C20.7235 25.1364 21.851 25.9356 23.2013 26.9242C24.5474 27.9128 25.7548 28.7668 25.8852 28.8257C26.226 28.9855 26.6046 28.9982 26.8527 28.8677C27.0757 28.7499 27.2903 28.4555 27.3828 28.1484C27.4164 28.0306 28.1905 24.4675 29.095 20.2313C30.6051 13.1808 30.744 12.4993 30.744 12.1333C30.744 11.7884 30.7314 11.7042 30.6388 11.5234C30.5757 11.393 30.4621 11.2625 30.3527 11.1868C30.1046 11.0144 29.6923 10.9933 29.2969 11.1405Z" fill="black"/>
</g>
<defs>
<clipPath id="clip0_22_18">
<rect width="40" height="40" fill="white"/>
</clipPath>
</defs>
</svg>
