<svg width="221" height="34" viewBox="0 0 221 34" fill="none" xmlns="http://www.w3.org/2000/svg">
<path d="M0.636719 1.78125H9.32812L19.3867 13.6172V4.90625H16.2617V1.78125H26.418V4.90625H23.293V26H20.9492L7.66797 10.375V22.875H10.793V26H0.636719V22.875H3.76172V4.90625H0.636719V1.78125ZM44.9727 14.2324V22.875H46.9258V26H40.8418L39.9727 23.9688C39.3086 24.9193 38.5371 25.5703 37.6582 25.9219C36.7858 26.2734 35.5651 26.4492 33.9961 26.4492C33.1823 26.4492 32.4238 26.306 31.7207 26.0195C31.0241 25.7396 30.4284 25.3555 29.9336 24.8672C29.4453 24.3789 29.0612 23.793 28.7812 23.1094C28.5078 22.4258 28.3711 21.6934 28.3711 20.9121C28.3711 19.5645 28.8984 18.4479 29.9531 17.5625C31.0078 16.6706 32.3555 16.2246 33.9961 16.2246C35.3177 16.2246 36.4115 16.3516 37.2773 16.6055C38.1432 16.8529 38.8854 17.25 39.5039 17.7969V13.6562C39.5039 13.0703 39.4225 12.582 39.2598 12.1914C39.1035 11.7943 38.8659 11.4915 38.5469 11.2832C38.2279 11.0684 37.8698 10.9186 37.4727 10.834C37.0755 10.7493 36.6003 10.707 36.0469 10.707C35.6042 10.707 35.2038 10.8014 34.8457 10.9902C35.0475 11.4134 35.1484 11.8594 35.1484 12.3281C35.1484 13.194 34.8424 13.9329 34.2305 14.5449C33.625 15.1504 32.8893 15.4531 32.0234 15.4531C31.1576 15.4531 30.4186 15.1504 29.8066 14.5449C29.2012 13.9329 28.8984 13.194 28.8984 12.3281C28.8984 11.8854 28.9831 11.4688 29.1523 11.0781C29.3281 10.6875 29.569 10.3457 29.875 10.0527C30.1354 9.7793 30.4056 9.53516 30.6855 9.32031C30.9655 9.09896 31.3171 8.88086 31.7402 8.66602C32.1699 8.44466 32.6354 8.26237 33.1367 8.11914C33.638 7.97591 34.237 7.86198 34.9336 7.77734C35.6367 7.6862 36.4049 7.64062 37.2383 7.64062C38.319 7.64062 39.3346 7.80013 40.2852 8.11914C41.2357 8.43815 42.056 8.88086 42.7461 9.44727C43.4362 10.0137 43.9798 10.7103 44.377 11.5371C44.7741 12.3639 44.9727 13.2624 44.9727 14.2324ZM39.5039 21.6641V20.3164C39.1003 19.9323 38.6445 19.61 38.1367 19.3496C37.6354 19.0827 37.1699 18.9492 36.7402 18.9492C35.8158 18.9492 35.1647 19.1055 34.7871 19.418C34.4095 19.724 34.2207 20.222 34.2207 20.9121C34.2207 21.7389 34.3835 22.3477 34.709 22.7383C35.0345 23.1289 35.64 23.3242 36.5254 23.3242C37.0267 23.3242 37.5475 23.1647 38.0879 22.8457C38.6348 22.5202 39.1068 22.1263 39.5039 21.6641ZM51.1543 5.95117C50.5488 5.33919 50.2461 4.60026 50.2461 3.73438C50.2461 2.86849 50.5488 2.13281 51.1543 1.52734C51.7663 0.915365 52.5052 0.609375 53.3711 0.609375C54.237 0.609375 54.9727 0.915365 55.5781 1.52734C56.1901 2.13281 56.4961 2.86849 56.4961 3.73438C56.4961 4.60026 56.1901 5.33919 55.5781 5.95117C54.9727 6.55664 54.237 6.85938 53.3711 6.85938C52.5052 6.85938 51.7663 6.55664 51.1543 5.95117ZM48.6836 8.03125H56.1055V22.875H58.0586V26H48.6836V22.875H50.6367V11.1562H48.6836V8.03125ZM59.6211 1.78125H67.043V22.875H68.9961V26H59.6211V22.875H61.5742V4.90625H59.6211V1.78125ZM76.3008 22.8848C76.6719 23.1387 77.2318 23.2656 77.9805 23.2656C78.651 23.2656 79.1947 23.2266 79.6113 23.1484C80.0345 23.0703 80.3535 22.9434 80.5684 22.7676C80.7832 22.5853 80.9264 22.3867 80.998 22.1719C81.0697 21.9505 81.1055 21.6641 81.1055 21.3125C81.1055 20.8958 80.9948 20.5378 80.7734 20.2383C80.5521 19.9388 80.2526 19.6979 79.875 19.5156C79.4974 19.3333 79.0645 19.1738 78.5762 19.0371C78.0879 18.8939 77.5736 18.7604 77.0332 18.6367C76.4928 18.5065 75.9525 18.3665 75.4121 18.2168C74.8717 18.0605 74.3574 17.8587 73.8691 17.6113C73.3809 17.3574 72.9479 17.0612 72.5703 16.7227C72.1927 16.3776 71.8932 15.9316 71.6719 15.3848C71.4505 14.8379 71.3398 14.2096 71.3398 13.5C71.3398 12.849 71.418 12.2565 71.5742 11.7227C71.7305 11.1888 71.9388 10.7363 72.1992 10.3652C72.4596 9.98763 72.7884 9.65885 73.1855 9.37891C73.5827 9.09896 73.9961 8.87435 74.4258 8.70508C74.862 8.53581 75.3503 8.39909 75.8906 8.29492C76.4375 8.19076 76.9648 8.1224 77.4727 8.08984C77.9805 8.05078 78.5339 8.03125 79.1328 8.03125C80.4349 8.03125 81.571 8.19727 82.541 8.5293C83.5176 8.86133 84.2858 9.30729 84.8457 9.86719C85.1452 10.1211 85.3763 10.4303 85.5391 10.7949C85.7083 11.153 85.793 11.5339 85.793 11.9375C85.793 12.6927 85.526 13.3372 84.9922 13.8711C84.4583 14.4049 83.8138 14.6719 83.0586 14.6719C82.3034 14.6719 81.6589 14.4049 81.125 13.8711C80.5911 13.3372 80.3242 12.6927 80.3242 11.9375C80.3242 11.6641 80.3633 11.4004 80.4414 11.1465C80.0703 10.8926 79.5104 10.7656 78.7617 10.7656C77.8438 10.7656 77.1569 10.8763 76.7012 11.0977C76.252 11.319 76.0273 11.7292 76.0273 12.3281C76.0273 12.7057 76.1217 13.041 76.3105 13.334C76.4993 13.6204 76.7565 13.8581 77.082 14.0469C77.4076 14.2292 77.7852 14.4049 78.2148 14.5742C78.651 14.737 79.1133 14.877 79.6016 14.9941C80.0898 15.1048 80.5911 15.2415 81.1055 15.4043C81.6198 15.5671 82.1211 15.7331 82.6094 15.9023C83.0977 16.0716 83.5566 16.2962 83.9863 16.5762C84.4225 16.8496 84.8034 17.1589 85.1289 17.5039C85.4544 17.849 85.7116 18.2819 85.9004 18.8027C86.0892 19.3171 86.1836 19.8932 86.1836 20.5312C86.1836 21.4427 86.0306 22.2467 85.7246 22.9434C85.4251 23.6335 85.0215 24.1934 84.5137 24.623C84.0124 25.0527 83.3874 25.4043 82.6387 25.6777C81.89 25.9447 81.112 26.1302 80.3047 26.2344C79.4974 26.3385 78.599 26.3906 77.6094 26.3906C75.6107 26.3906 73.9993 26.0098 72.7754 25.248C71.5579 24.4863 70.9492 23.4349 70.9492 22.0938C70.9492 21.3385 71.2161 20.694 71.75 20.1602C72.2839 19.6263 72.9284 19.3594 73.6836 19.3594C74.4388 19.3594 75.0833 19.6263 75.6172 20.1602C76.151 20.694 76.418 21.3385 76.418 22.0938C76.418 22.3672 76.3789 22.6309 76.3008 22.8848ZM99.0742 1.78125H107.766L117.824 13.6172V4.90625H114.699V1.78125H124.855V4.90625H121.73V26H119.387L106.105 10.375V22.875H109.23V26H99.0742V22.875H102.199V4.90625H99.0742V1.78125ZM143.41 14.2324V22.875H145.363V26H139.279L138.41 23.9688C137.746 24.9193 136.975 25.5703 136.096 25.9219C135.223 26.2734 134.003 26.4492 132.434 26.4492C131.62 26.4492 130.861 26.306 130.158 26.0195C129.462 25.7396 128.866 25.3555 128.371 24.8672C127.883 24.3789 127.499 23.793 127.219 23.1094C126.945 22.4258 126.809 21.6934 126.809 20.9121C126.809 19.5645 127.336 18.4479 128.391 17.5625C129.445 16.6706 130.793 16.2246 132.434 16.2246C133.755 16.2246 134.849 16.3516 135.715 16.6055C136.581 16.8529 137.323 17.25 137.941 17.7969V13.6562C137.941 13.0703 137.86 12.582 137.697 12.1914C137.541 11.7943 137.303 11.4915 136.984 11.2832C136.665 11.0684 136.307 10.9186 135.91 10.834C135.513 10.7493 135.038 10.707 134.484 10.707C134.042 10.707 133.641 10.8014 133.283 10.9902C133.485 11.4134 133.586 11.8594 133.586 12.3281C133.586 13.194 133.28 13.9329 132.668 14.5449C132.062 15.1504 131.327 15.4531 130.461 15.4531C129.595 15.4531 128.856 15.1504 128.244 14.5449C127.639 13.9329 127.336 13.194 127.336 12.3281C127.336 11.8854 127.421 11.4688 127.59 11.0781C127.766 10.6875 128.007 10.3457 128.312 10.0527C128.573 9.7793 128.843 9.53516 129.123 9.32031C129.403 9.09896 129.755 8.88086 130.178 8.66602C130.607 8.44466 131.073 8.26237 131.574 8.11914C132.076 7.97591 132.674 7.86198 133.371 7.77734C134.074 7.6862 134.842 7.64062 135.676 7.64062C136.757 7.64062 137.772 7.80013 138.723 8.11914C139.673 8.43815 140.493 8.88086 141.184 9.44727C141.874 10.0137 142.417 10.7103 142.814 11.5371C143.212 12.3639 143.41 13.2624 143.41 14.2324ZM137.941 21.6641V20.3164C137.538 19.9323 137.082 19.61 136.574 19.3496C136.073 19.0827 135.607 18.9492 135.178 18.9492C134.253 18.9492 133.602 19.1055 133.225 19.418C132.847 19.724 132.658 20.222 132.658 20.9121C132.658 21.7389 132.821 22.3477 133.146 22.7383C133.472 23.1289 134.077 23.3242 134.963 23.3242C135.464 23.3242 135.985 23.1647 136.525 22.8457C137.072 22.5202 137.544 22.1263 137.941 21.6641ZM152.863 22.8848C153.234 23.1387 153.794 23.2656 154.543 23.2656C155.214 23.2656 155.757 23.2266 156.174 23.1484C156.597 23.0703 156.916 22.9434 157.131 22.7676C157.346 22.5853 157.489 22.3867 157.561 22.1719C157.632 21.9505 157.668 21.6641 157.668 21.3125C157.668 20.8958 157.557 20.5378 157.336 20.2383C157.115 19.9388 156.815 19.6979 156.438 19.5156C156.06 19.3333 155.627 19.1738 155.139 19.0371C154.65 18.8939 154.136 18.7604 153.596 18.6367C153.055 18.5065 152.515 18.3665 151.975 18.2168C151.434 18.0605 150.92 17.8587 150.432 17.6113C149.943 17.3574 149.51 17.0612 149.133 16.7227C148.755 16.3776 148.456 15.9316 148.234 15.3848C148.013 14.8379 147.902 14.2096 147.902 13.5C147.902 12.849 147.98 12.2565 148.137 11.7227C148.293 11.1888 148.501 10.7363 148.762 10.3652C149.022 9.98763 149.351 9.65885 149.748 9.37891C150.145 9.09896 150.559 8.87435 150.988 8.70508C151.424 8.53581 151.913 8.39909 152.453 8.29492C153 8.19076 153.527 8.1224 154.035 8.08984C154.543 8.05078 155.096 8.03125 155.695 8.03125C156.997 8.03125 158.133 8.19727 159.104 8.5293C160.08 8.86133 160.848 9.30729 161.408 9.86719C161.708 10.1211 161.939 10.4303 162.102 10.7949C162.271 11.153 162.355 11.5339 162.355 11.9375C162.355 12.6927 162.089 13.3372 161.555 13.8711C161.021 14.4049 160.376 14.6719 159.621 14.6719C158.866 14.6719 158.221 14.4049 157.688 13.8711C157.154 13.3372 156.887 12.6927 156.887 11.9375C156.887 11.6641 156.926 11.4004 157.004 11.1465C156.633 10.8926 156.073 10.7656 155.324 10.7656C154.406 10.7656 153.719 10.8763 153.264 11.0977C152.814 11.319 152.59 11.7292 152.59 12.3281C152.59 12.7057 152.684 13.041 152.873 13.334C153.062 13.6204 153.319 13.8581 153.645 14.0469C153.97 14.2292 154.348 14.4049 154.777 14.5742C155.214 14.737 155.676 14.877 156.164 14.9941C156.652 15.1048 157.154 15.2415 157.668 15.4043C158.182 15.5671 158.684 15.7331 159.172 15.9023C159.66 16.0716 160.119 16.2962 160.549 16.5762C160.985 16.8496 161.366 17.1589 161.691 17.5039C162.017 17.849 162.274 18.2819 162.463 18.8027C162.652 19.3171 162.746 19.8932 162.746 20.5312C162.746 21.4427 162.593 22.2467 162.287 22.9434C161.988 23.6335 161.584 24.1934 161.076 24.623C160.575 25.0527 159.95 25.4043 159.201 25.6777C158.452 25.9447 157.674 26.1302 156.867 26.2344C156.06 26.3385 155.161 26.3906 154.172 26.3906C152.173 26.3906 150.562 26.0098 149.338 25.248C148.12 24.4863 147.512 23.4349 147.512 22.0938C147.512 21.3385 147.779 20.694 148.312 20.1602C148.846 19.6263 149.491 19.3594 150.246 19.3594C151.001 19.3594 151.646 19.6263 152.18 20.1602C152.714 20.694 152.98 21.3385 152.98 22.0938C152.98 22.3672 152.941 22.6309 152.863 22.8848ZM170.168 4.125H172.121V8.03125H177.59V11.1562H172.121V21.3125C172.121 21.7552 172.245 22.1263 172.492 22.4258C172.746 22.7253 173.143 22.875 173.684 22.875C174.289 22.875 174.803 22.6764 175.227 22.2793C175.65 21.8757 175.917 21.293 176.027 20.5312L178.371 20.9219C178.273 21.6836 178.085 22.39 177.805 23.041C177.531 23.6855 177.173 24.2617 176.73 24.7695C176.288 25.2708 175.738 25.668 175.08 25.9609C174.429 26.2474 173.703 26.3906 172.902 26.3906C170.956 26.3906 169.426 25.9382 168.312 25.0332C167.206 24.1217 166.652 22.8815 166.652 21.3125V11.1562H164.699V8.03125H165.09C166.092 8.03125 166.978 7.74479 167.746 7.17188C168.514 6.59896 169.322 5.58333 170.168 4.125ZM180.451 32.0254C180.106 31.5046 179.934 30.9284 179.934 30.2969C179.934 29.431 180.236 28.6921 180.842 28.0801C181.454 27.4746 182.193 27.1719 183.059 27.1719C183.924 27.1719 184.66 27.4746 185.266 28.0801C185.878 28.6921 186.184 29.431 186.184 30.2969C186.184 30.4792 186.167 30.6549 186.135 30.8242C186.161 30.8307 186.184 30.834 186.203 30.834C186.672 30.834 187.245 30.0592 187.922 28.5098L188.654 26.8301L181.77 11.1562H179.934V8.03125H190.871V11.1562H187.658L190.754 18.1875C191.151 19.112 191.438 19.8932 191.613 20.5312C191.789 19.8932 192.076 19.112 192.473 18.1875L195.559 11.1562H192.824V8.03125H201.027V11.1562H198.957L192.434 26C192.095 26.7682 191.789 27.429 191.516 27.9824C191.249 28.5423 190.946 29.1087 190.607 29.6816C190.275 30.2611 189.953 30.7493 189.641 31.1465C189.328 31.5436 188.973 31.9212 188.576 32.2793C188.186 32.6374 187.779 32.9206 187.355 33.1289C186.932 33.3438 186.464 33.5098 185.949 33.627C185.435 33.7507 184.882 33.8125 184.289 33.8125C183.736 33.8125 183.247 33.7669 182.824 33.6758C182.401 33.5911 182.04 33.4609 181.74 33.2852C181.447 33.1159 181.203 32.9303 181.008 32.7285C180.812 32.5332 180.627 32.2988 180.451 32.0254ZM218.605 14.2324V22.875H220.559V26H214.475L213.605 23.9688C212.941 24.9193 212.17 25.5703 211.291 25.9219C210.419 26.2734 209.198 26.4492 207.629 26.4492C206.815 26.4492 206.057 26.306 205.354 26.0195C204.657 25.7396 204.061 25.3555 203.566 24.8672C203.078 24.3789 202.694 23.793 202.414 23.1094C202.141 22.4258 202.004 21.6934 202.004 20.9121C202.004 19.5645 202.531 18.4479 203.586 17.5625C204.641 16.6706 205.988 16.2246 207.629 16.2246C208.951 16.2246 210.044 16.3516 210.91 16.6055C211.776 16.8529 212.518 17.25 213.137 17.7969V13.6562C213.137 13.0703 213.055 12.582 212.893 12.1914C212.736 11.7943 212.499 11.4915 212.18 11.2832C211.861 11.0684 211.503 10.9186 211.105 10.834C210.708 10.7493 210.233 10.707 209.68 10.707C209.237 10.707 208.837 10.8014 208.479 10.9902C208.68 11.4134 208.781 11.8594 208.781 12.3281C208.781 13.194 208.475 13.9329 207.863 14.5449C207.258 15.1504 206.522 15.4531 205.656 15.4531C204.79 15.4531 204.051 15.1504 203.439 14.5449C202.834 13.9329 202.531 13.194 202.531 12.3281C202.531 11.8854 202.616 11.4688 202.785 11.0781C202.961 10.6875 203.202 10.3457 203.508 10.0527C203.768 9.7793 204.038 9.53516 204.318 9.32031C204.598 9.09896 204.95 8.88086 205.373 8.66602C205.803 8.44466 206.268 8.26237 206.77 8.11914C207.271 7.97591 207.87 7.86198 208.566 7.77734C209.27 7.6862 210.038 7.64062 210.871 7.64062C211.952 7.64062 212.967 7.80013 213.918 8.11914C214.868 8.43815 215.689 8.88086 216.379 9.44727C217.069 10.0137 217.613 10.7103 218.01 11.5371C218.407 12.3639 218.605 13.2624 218.605 14.2324ZM213.137 21.6641V20.3164C212.733 19.9323 212.277 19.61 211.77 19.3496C211.268 19.0827 210.803 18.9492 210.373 18.9492C209.449 18.9492 208.798 19.1055 208.42 19.418C208.042 19.724 207.854 20.222 207.854 20.9121C207.854 21.7389 208.016 22.3477 208.342 22.7383C208.667 23.1289 209.273 23.3242 210.158 23.3242C210.66 23.3242 211.18 23.1647 211.721 22.8457C212.268 22.5202 212.74 22.1263 213.137 21.6641Z" fill="#FA5D90"/>
</svg>
